<?xml version="1.0"?>
<svg xmlns="http://www.w3.org/2000/svg" viewBox="0 0 50 50">
    <path d="M 25 2 C 12.297 2 2 12.297 2 25 C 2 37.703 12.297 48 25 48 C 37.703 48 48 37.703 48 25 C 48 12.297 37.703 2 25 2 z M 25 7 C 34.925 7 43 15.075 43 25 C 43 34.925 34.925 43 25 43 C 15.075 43 7 34.925 7 25 C 7 15.075 15.075 7 25 7 z M 25 9 C 16.178 9 9 16.178 9 25 C 9 33.822 16.178 41 25 41 C 33.822 41 41 33.822 41 25 C 41 16.178 33.822 9 25 9 z M 32 18 L 25.736328 35 L 23.052734 26.947266 L 15 24.263672 L 32 18 z"/>
</svg>
